<svg xmlns="http://www.w3.org/2000/svg" style="display: none;">

		<symbol id="icon-activities" width = "13px" height = "13px" viewBox="0 0 13 13">
		  <path d="M5.826,9.926 C5.826,9.926 5.826,8.938 5.826,8.938 C5.826,8.938 12.814,8.938 12.814,8.938 C12.814,8.938 12.814,9.926 12.814,9.926 C12.814,9.926 5.826,9.926 5.826,9.926 ZM7.841,5.939 C7.841,5.939 12.814,5.939 12.814,5.939 C12.814,5.939 12.814,6.927 12.814,6.927 C12.814,6.927 7.841,6.927 7.841,6.927 C7.841,6.927 7.841,5.939 7.841,5.939 ZM5.840,3.003 C5.840,3.003 12.814,3.003 12.814,3.003 C12.814,3.003 12.814,3.960 12.814,3.960 C12.814,3.960 5.840,3.960 5.840,3.960 C5.840,3.960 5.840,3.003 5.840,3.003 ZM5.840,0.003 C5.840,0.003 12.814,0.003 12.814,0.003 C12.814,0.003 12.814,0.960 12.814,0.960 C12.814,0.960 5.840,0.960 5.840,0.960 C5.840,0.960 5.840,0.003 5.840,0.003 ZM6.954,6.385 C5.008,8.176 3.413,10.696 2.910,11.986 C2.910,11.986 -0.015,8.886 -0.015,8.886 C-0.015,8.886 0.732,8.377 0.732,8.377 C0.732,8.377 2.425,9.672 2.425,9.672 C3.116,8.849 4.655,6.615 6.775,5.315 C6.775,5.315 6.954,6.385 6.954,6.385 ZM1.802,3.003 C1.802,3.003 3.676,3.003 3.676,3.003 C3.676,3.003 3.676,3.960 3.676,3.960 C3.676,3.960 1.802,3.960 1.802,3.960 C1.802,3.960 1.802,3.003 1.802,3.003 ZM1.802,0.003 C1.802,0.003 3.676,0.003 3.676,0.003 C3.676,0.003 3.676,0.960 3.676,0.960 C3.676,0.960 1.802,0.960 1.802,0.960 C1.802,0.960 1.802,0.003 1.802,0.003 Z" id="path-1" class="cls-2" fill-rule="evenodd"/>
		</symbol>

		<symbol id="icon-notifications" width = "15px" height = "14px" viewBox="0 0 15 14">
		  <path d="M13.797,12.058 C13.631,12.237 13.445,12.360 13.239,12.470 C12.828,12.685 12.353,12.876 11.745,13.014 C10.532,13.284 8.888,13.443 7.104,13.444 C5.934,13.444 4.742,13.374 3.784,13.251 C2.824,13.127 2.010,12.922 1.378,12.690 C0.955,12.529 0.608,12.365 0.318,12.058 C0.156,11.885 0.004,11.618 0.005,11.300 C0.004,10.981 0.156,10.714 0.318,10.541 C0.483,10.363 0.669,10.240 0.875,10.129 C1.116,10.003 1.038,9.896 1.347,9.801 C2.881,8.403 2.268,7.231 2.268,5.745 C2.268,4.256 3.922,2.109 5.831,1.406 C5.818,1.336 5.811,1.264 5.811,1.190 C5.811,0.529 6.411,-0.006 7.072,-0.006 C7.733,-0.006 8.301,0.529 8.301,1.190 C8.301,1.245 8.296,1.298 8.289,1.351 C10.284,1.995 11.765,4.259 11.765,5.745 C11.765,7.243 10.970,8.418 12.664,9.884 C12.688,9.892 12.713,9.900 12.737,9.909 C13.159,10.070 13.506,10.235 13.797,10.541 C13.959,10.714 14.110,10.981 14.109,11.300 C14.110,11.618 13.959,11.885 13.797,12.058 ZM11.355,9.497 C10.351,8.498 10.915,6.971 10.915,5.569 C10.915,3.690 7.191,1.582 7.070,1.562 C7.058,1.560 3.241,3.306 3.241,5.558 C3.241,6.196 3.442,7.047 3.450,7.642 C3.458,8.216 3.241,8.921 3.113,9.348 C2.992,9.747 5.800,9.210 7.129,9.253 C9.540,9.331 11.656,9.796 11.355,9.497 ZM8.187,10.066 C8.069,10.928 7.619,11.254 7.041,11.254 C6.464,11.254 6.045,10.929 5.927,10.066 C6.402,10.036 1.022,10.094 1.022,11.271 C1.022,11.947 3.291,12.518 7.104,12.514 C9.844,12.514 13.092,12.166 13.092,11.209 C13.092,10.652 10.929,10.066 8.187,10.066 Z" id="path-1" class="cls-2" fill-rule="evenodd"/>
		</symbol>

		<symbol id="icon-actions" width = "13px" height = "13px" viewBox="0 0 13 13">
		  <path d="M6.500,13.000 C2.909,13.000 0.000,10.091 -0.001,6.500 C0.000,2.910 2.909,0.000 6.500,-0.000 C10.090,0.000 13.000,2.910 13.000,6.500 C13.000,10.091 10.090,13.000 6.500,13.000 ZM10.391,2.609 C9.391,1.612 8.023,0.998 6.500,0.998 C4.976,0.998 3.609,1.612 2.609,2.609 C1.611,3.609 0.998,4.976 0.997,6.500 C0.998,8.024 1.611,9.391 2.609,10.391 C3.609,11.388 4.976,12.001 6.500,12.002 C8.023,12.001 9.391,11.388 10.391,10.391 C11.389,9.391 12.002,8.024 12.002,6.500 C12.002,4.976 11.388,3.609 10.391,2.609 ZM7.007,9.993 C7.007,9.993 6.000,10.000 6.000,10.000 C6.000,10.000 5.997,7.000 5.997,7.000 C5.997,7.000 3.000,7.000 3.000,7.000 C3.000,7.000 3.000,6.000 3.000,6.000 C3.000,6.000 5.997,6.000 5.997,6.000 C5.997,6.000 5.994,3.001 5.994,3.001 C5.994,3.001 7.007,3.002 7.007,3.002 C7.007,3.002 7.007,6.000 7.007,6.000 C7.007,6.000 10.000,6.000 10.000,6.000 C10.000,6.000 10.000,7.000 10.000,7.000 C10.000,7.000 7.007,7.000 7.007,7.000 C7.007,7.000 7.007,9.993 7.007,9.993 Z" id="path-1" class="cls-2" fill-rule="evenodd"/>
		</symbol>

		<symbol id="icon-staff" width = "14px" height = "14px" viewBox="0 0 14 14">
			<path d="M8.925,8.322c0.128,0.294,0.363,0.886,0.603,1.063c0.201,0.061,0.402,0.119,0.604,0.179 c0.704,0.312,1.486,0.685,2.192,1.005c0.642,0.292,1.411,0.396,1.644,1.124c0,0.494,0.043,1.66,0.031,2.308H0.002 c-0.012-0.647,0.031-1.813,0.031-2.308c0.232-0.728,1.001-0.832,1.644-1.124c0.706-0.32,1.488-0.693,2.192-1.005 c0.201-0.06,0.402-0.118,0.603-0.177c0.24-0.178,0.475-0.77,0.603-1.064L5.36,8.247C5.295,7.858,5.072,7.829,4.979,7.553 C4.943,7.139,4.75,6.725,4.714,6.311c0.001,0.02-0.263-0.052-0.297-0.075c-0.373-0.252-0.38-1.274-0.416-1.699 c-0.017-0.194,0.234-0.354,0.164-0.71C3.758,1.74,4.498,0.764,5.422,0.44c0.642-0.28,1.838-0.8,2.955-0.059l0.277,0.277L9.32,0.741 c0.226,0.141,0.369,0.606,0.369,0.606C9.809,1.86,9.82,1.903,9.809,2.43C9.805,2.633,9.695,3.573,9.727,3.861 C9.75,4.099,9.805,4.117,9.893,4.313c0.15,0.341,0.101,0.811,0.041,1.154c-0.031,0.189-0.099,0.457-0.201,0.61 c-0.111,0.169-0.336,0.17-0.437,0.368c-0.144,0.284-0.28,0.683-0.372,0.99"/>
		</symbol>

		<symbol id="icon-staff-added" width="19px" height="14.009px" viewBox="0 0 19 14.009">
			<path d="M13.746,9.01h1.527V5.254H19V3.728h-3.729V0h-1.526v3.728H9.991v1.527h3.755V9.01z M9.471,1.355 c0.118,0.514,0.13,0.556,0.119,1.083C9.585,2.642,9.478,3.582,9.507,3.87c0.024,0.238,0.079,0.256,0.166,0.452 c0.151,0.341,0.101,0.811,0.042,1.155c-0.031,0.188-0.098,0.456-0.2,0.609c-0.112,0.169-0.337,0.17-0.437,0.368 c-0.143,0.284-0.062,0.683-0.153,0.99C8.822,7.792,8.561,7.816,8.542,8.272c0.128,0.02,0.256,0.039,0.383,0.059 c0.128,0.295,0.363,0.887,0.603,1.065c0.201,0.06,0.402,0.118,0.603,0.177c0.704,0.312,1.486,0.686,2.192,1.006 c0.643,0.293,1.411,0.397,1.644,1.125c0,0.492,0.043,1.659,0.031,2.307H0.002c-0.012-0.647,0.031-1.813,0.031-2.307 c0.232-0.728,1.001-0.832,1.644-1.125c0.706-0.32,1.488-0.693,2.192-1.006C4.07,9.514,4.271,9.456,4.472,9.396 c0.24-0.179,0.475-0.771,0.603-1.065L5.36,8.256c-0.065-0.389-0.287-0.42-0.381-0.694C4.943,7.148,4.907,6.734,4.87,6.32 c0.001,0.02-0.262-0.052-0.297-0.076C4.201,5.993,4.193,4.97,4.158,4.545C4.141,4.35,4.392,4.191,4.322,3.835 c-0.408-2.086,0.177-3.063,1.1-3.386C6.063,0.168,7.26-0.352,8.377,0.39l0.277,0.277L9.103,0.75C9.328,0.89,9.471,1.355,9.471,1.355 z"/>
		</symbol>

		<symbol id="icon-staff-removed" width="19.006px" height="14.001px" viewBox="0 0 19.006 14.001">
			<path d="M17.851,8.993l1.155-1.16l-2.844-2.854l2.821-2.831l-1.156-1.159L15.006,3.82l-2.821-2.831l-1.156,1.16 l2.822,2.831l-2.844,2.853l1.156,1.158l2.843-2.852L17.851,8.993z M9.471,1.347C9.589,1.861,9.601,1.903,9.59,2.43 C9.585,2.633,9.478,3.573,9.507,3.861c0.024,0.237,0.079,0.256,0.166,0.452c0.151,0.341,0.101,0.811,0.042,1.155 c-0.031,0.188-0.098,0.456-0.2,0.61c-0.112,0.169-0.337,0.17-0.437,0.368C8.935,6.73,9.016,7.129,8.925,7.436 C8.822,7.784,8.561,7.809,8.542,8.264c0.128,0.021,0.256,0.039,0.383,0.06C9.053,8.618,9.288,9.21,9.528,9.389 c0.201,0.059,0.402,0.117,0.603,0.176c0.704,0.312,1.486,0.687,2.192,1.006c0.643,0.293,1.412,0.396,1.644,1.125 c0,0.494,0.043,1.66,0.031,2.308H0.002c-0.012-0.647,0.031-1.813,0.031-2.308c0.232-0.729,1.001-0.831,1.644-1.125 c0.706-0.319,1.488-0.692,2.192-1.006C4.07,9.504,4.271,9.445,4.472,9.387c0.24-0.178,0.475-0.771,0.603-1.064L5.36,8.249 c-0.065-0.39-0.287-0.42-0.381-0.694C4.943,7.14,4.907,6.726,4.87,6.312C4.871,6.331,4.608,6.26,4.573,6.236 C4.2,5.985,4.193,4.962,4.157,4.537C4.14,4.343,4.391,4.183,4.321,3.827C3.914,1.741,4.499,0.764,5.422,0.44 c0.641-0.28,1.838-0.8,2.955-0.059l0.277,0.277l0.448,0.083C9.328,0.882,9.471,1.347,9.471,1.347z"/>

		</symbol>


		<symbol id="icon-forms" width = "13px" height = "13px" viewBox="0 0 13 13">
			<path style="fill-rule:evenodd;clip-rule:evenodd;" d="M6.253,1.226L6.031,1.015H0V13h8.859l0.156-9.147L8.793,3.641 L6.253,1.226z M8.115,12.255H0.744L0.757,1.734h4.283c1.125,0,0.583,2.537,0.583,2.537S8.225,3.67,8.258,4.804L8.115,12.255z
	 M12.782,2.417L10.367,0H6.604l0.744,0.745h2.125c0.002,0,0.003,0,0.005,0c0,0.008,0,0.016,0,0.025c0.332,0,0.496,0.269,0.568,0.623 c0.13,0.683-0.069,1.66-0.069,1.66s0.004-0.001,0.01-0.002C9.984,3.068,9.982,3.078,9.982,3.078s1.995-0.485,2.252,0.319 c0.002,0.009,0.005,0.018,0.007,0.026c0.002,0.009,0.004,0.019,0.006,0.027c0.004,0.028,0.007,0.056,0.008,0.086l0.083,6.751h-2.325 v0.704H13V2.635L12.782,2.417z"/>
		</symbol>

		<symbol id="icon-attachments" width="8.017px" height="17.994px" viewBox="0 0 8.017 17.994">
			<path style="fill-rule:evenodd;clip-rule:evenodd;" d="M2.776,0.893C3.327,0.337,4.101-0.002,4.95,0l0,0 c0.849,0.002,1.625,0.347,2.179,0.907l0,0c0.522,0.525,0.853,1.252,0.854,2.049l0,0l0,0.183l0.033,10.987 c0.004,1.046-0.424,1.999-1.108,2.688l0,0c-0.726,0.733-1.749,1.184-2.874,1.181l0,0c-1.124-0.004-2.149-0.46-2.88-1.198l0,0 c-0.689-0.694-1.122-1.648-1.125-2.695l0,0L0.002,4.877L0,4.191l1.361,0.004l0.03,9.911c0.002,0.665,0.272,1.266,0.723,1.723l0,0 c0.479,0.483,1.157,0.79,1.917,0.792l0,0c0.76,0.002,1.437-0.301,1.913-0.781l0,0c0.448-0.454,0.714-1.053,0.712-1.718l0,0 L6.624,3.134L6.623,2.951C6.621,2.537,6.454,2.163,6.17,1.875l0,0c-0.303-0.305-0.731-0.5-1.216-0.502l0,0 C4.47,1.371,4.042,1.564,3.742,1.867l0,0c-0.283,0.287-0.447,0.66-0.447,1.074l0,0l0.023,7.774l0.002,0.651 c0.001,0.156,0.062,0.295,0.175,0.411l0,0c0.12,0.121,0.292,0.202,0.492,0.202l0,0c0.201,0,0.373-0.079,0.492-0.199l0,0 c0.112-0.115,0.172-0.253,0.172-0.41l0,0L4.629,4.205L5.99,4.209l0.021,7.166c0.003,0.539-0.219,1.03-0.567,1.38l0,0 c-0.369,0.373-0.887,0.6-1.453,0.598l0,0c-0.564-0.002-1.083-0.231-1.456-0.606l0,0c-0.35-0.352-0.575-0.845-0.576-1.383l0,0 l-0.002-0.651L1.934,2.937C1.932,2.142,2.256,1.418,2.773,0.896l0,0C2.774,0.896,2.775,0.894,2.776,0.893L2.776,0.893z"/>
		</symbol>

		<symbol id="icon-protocol-number" width="8.695px" height="9.994px" viewBox="0 0 8.695 9.994">
			<path d="M0.055,6.371L0,6.911h1.935L1.019,9.994H1.62l0.916-3.083h2.461L4.074,9.994h0.615l0.909-3.083h2.188 l0.055-0.54H5.77L6.576,3.65h2.064l0.055-0.547H6.747L7.67,0H7.082L6.159,3.104H3.664L4.594,0H3.979L3.062,3.104H0.937L0.882,3.65 h2.03L2.099,6.371H0.055z M3.514,3.65h2.475l-0.82,2.721H2.687L3.514,3.65z"/>
		</symbol>

		<symbol id = "icon-flag" width="8.961px" height="12.016px" viewBox="0 0 8.961 12.016">
			<path style="fill-rule:evenodd;clip-rule:evenodd;" d="M0.014,3.207c0,0,1.786-0.16,3.286-1.495 c0.99-0.881,3.671-0.701,3.671-0.701L6.958,0l2.003,0.01L8.938,12.016L7,12.006v-5C6.718,6.982,5.162,6.625,4.082,7.599 C2.366,9.146,0,8.9,0,8.9L0.014,3.207z"/>
		</symbol>

		<symbol id="icon-favorite" width="12px" height="12px" viewBox="0 0 14.415 14.36">
			<path style="fill-rule:evenodd;clip-rule:evenodd;" d="M14.401,5.451c-0.038-0.12-0.146-0.202-0.266-0.202L9.497,4.651 L7.473,0.202C7.436,0.082,7.328,0,7.208,0C7.087,0,6.979,0.082,6.941,0.202L4.907,4.651L0.28,5.25c-0.121,0-0.229,0.082-0.266,0.202 c-0.038,0.12,0.003,0.252,0.101,0.327l3.382,3.469l-0.856,4.73c-0.038,0.12,0.003,0.252,0.101,0.327 c0.098,0.074,0.231,0.074,0.329,0l4.136-2.202l4.127,2.202c0.049,0.038,0.107,0.056,0.165,0.056s0.115-0.019,0.164-0.056 c0.099-0.075,0.14-0.206,0.102-0.327l-0.858-4.73L14.3,5.778C14.397,5.704,14.438,5.571,14.401,5.451z"/>
		</symbol>

		<symbol id="icon-locked" width="9.028px" height="11.084px" viewBox="0 0 9.028 11.084">
			<path fill-rule="evenodd" clip-rule="evenodd" d="M8.58,5.045H7.984V3.411c0-0.925-0.376-1.773-0.997-2.393
	C6.368,0.397,5.487-0.001,4.514,0C3.542-0.001,2.66,0.397,2.042,1.017C1.42,1.637,1.044,2.486,1.044,3.411v1.635H0.448
	C0.2,5.045,0,5.233,0,5.464v5.202c0,0.231,0.2,0.418,0.448,0.418H8.58c0.248,0,0.448-0.188,0.448-0.418V5.464
	C9.028,5.233,8.828,5.045,8.58,5.045z M2.987,3.411c0-0.534,0.216-1.006,0.553-1.342c0.339-0.336,0.485-0.529,0.974-0.53
	c0.489,0,0.635,0.194,0.974,0.53c0.336,0.336,0.552,0.809,0.552,1.342v1.635H2.987V3.411z"/>
		</symbol>

		<symbol id="icon-unlocked"  width="12.979px" height="11.061px" viewBox="0 0 12.979 11.061">
			<path fill-rule="evenodd" clip-rule="evenodd" d="M1.943,4.052c0-0.109,0.009-0.858,0.026-0.961
	c0.11-0.658,0.63-1.552,1.5-1.552c0.725,0.002,1.527,0.788,1.527,1.872v1.635H5H4.403c-0.248,0-0.448,0.187-0.448,0.418v5.202
	c0,0.231,0.2,0.418,0.448,0.418h8.132c0.248,0,0.448-0.188,0.448-0.418V5.464c0-0.231-0.2-0.418-0.448-0.418H6.972V3.411
	c0-0.925-0.409-1.773-1.03-2.394C5.323,0.397,4.441-0.001,3.469,0C2.497-0.001,1.616,0.397,0.997,1.017
	c-0.55,0.549-0.908,1.278-0.983,2.08C0.005,3.2,0,3.947,0,4.052H1.943z"/>
		</symbol>

		<symbol id="icon-download"  width="18.967px" height="13.976px" viewBox="0 0 18.967 13.976">
			<path style="fill-rule:evenodd;clip-rule:evenodd;" d="M2.63,6.988h2.316v1.843c0,0.657,0.533,1.19,1.19,1.19h6.667 c0.657,0,1.19-0.533,1.19-1.19V6.988h2.481l2.491,0.005v6.982H0V6.989L2.63,6.988z M10.999,0H7.99v2.995H4.879l4.6,5.55l4.568-5.55 h-3.049V0z"/>
		</symbol>

		<symbol id="icon-edit" width="8.677px" height="13.198px" viewBox="0 0 8.677 13.198">
			<path style="fill-rule:evenodd;clip-rule:evenodd;" d="M6.226,0l-1.05,1.658L7.627,3.16l1.05-1.658L6.226,0z
	 M5.962,3.363l1.107,0.678l-4.219,7.32l0,0l-0.01,0.016l-0.007-0.005L0,13.198l0.397-3.318L0.389,9.875l4.229-7.336l0.679,0.417 L5.962,3.363z M2.374,10.592l-1.235,0.796l0.173-1.447l0.491-0.776l0.337,0.642l0.726,0.009L2.374,10.592z"/>
		</symbol>

		<symbol id="icon-file-consent-form" width="11px" height="15px" viewBox="0 0 11 15">
			<path  d="M6.697,0l0.32,0.317l3.662,3.628L11,4.262V15H0V0H6.697z M1.092,14.001h8.816c0-2.69,0-6.527,0-8.31 c-0.024-0.827-0.919-1.04-1.835-1.04c-0.972,0-1.964,0.239-1.964,0.239s0.781-3.81-0.841-3.81H1.092V14.001z"/>
			<path style="fill:#989898;" d="M8.962,6.128c-2.12,1.3-3.659,2.94-4.35,3.763L2.92,8.564L2.172,9.167l2.925,2.976 			C5.6,10.854,7.195,8.332,9.141,6.542L8.962,6.128z"/>
			<path style="fill:#989898;" d="M6.697,0l0.32,0.317l3.662,3.628L11,4.262V15H0V0H6.697z M1.092,14h8.816c0-2.689,0-6.525,0-8.309 			C9.884,4.864,8.989,4.65,8.073,4.65c-0.972,0-1.964,0.24-1.964,0.24S6.891,1.08,5.268,1.08H1.092V14z"/>
		</symbol>

		<symbol id="icon-file-doc" width="19px" height="15px" viewBox="-0.305 0 19 15">
			<path d="M7.876,10.489c-0.224-0.146-0.494-0.261-0.812-0.345c-0.317-0.084-0.757-0.127-1.314-0.127H4.676v4.993 		h1.088c0.482,0,0.878-0.032,1.188-0.096s0.616-0.19,0.917-0.38c0.369-0.245,0.664-0.585,0.884-1.021 		c0.22-0.436,0.234-0.699,0.234-0.867c0-0.33-0.011-0.73-0.222-1.149S8.259,10.742,7.876,10.489z M7.77,13.006 		c-0.119,0.27-0.3,0.485-0.537,0.646c-0.19,0.133-0.399,0.223-0.63,0.271c-0.229,0.049-0.497,0.073-0.803,0.073H5.685v-3.009h0.115 		c0.312,0,0.569,0.023,0.778,0.072c0.208,0.049,0.404,0.129,0.587,0.239c0.26,0.158,0.455,0.377,0.587,0.658 		s0.103,0.241,0.103,0.64C7.855,12.783,7.89,12.736,7.77,13.006z M9.602,9l1.093-0.004V4.27l-0.32-0.317L6.712,0.324l-0.32-0.317 		h-6.696v15h4.016l0.033-0.999H0.787V1.089h4.177c1.622,0,0.84,3.81,0.84,3.81S6.798,4.66,7.768,4.66 		c0.916,0,1.813,0.213,1.835,1.04C9.602,6.588,9.602,9,9.602,9z M13.207,10.65c-0.181-0.209-0.404-0.369-0.668-0.483 		s-0.561-0.172-0.888-0.172c-0.324,0-0.618,0.056-0.882,0.167c-0.263,0.111-0.485,0.273-0.673,0.488 		c-0.186,0.221-0.329,0.483-0.429,0.791c-0.101,0.307-0.151,0.664-0.151,1.069c0,0.396,0.051,0.75,0.149,1.062 		c0.1,0.313,0.242,0.577,0.428,0.791c0.188,0.219,0.413,0.383,0.675,0.493c0.262,0.109,0.557,0.164,0.883,0.164 		c0.314,0,0.604-0.053,0.866-0.16c0.264-0.106,0.492-0.271,0.688-0.497c0.188-0.214,0.332-0.479,0.432-0.794 		c0.101-0.315,0.149-0.67,0.149-1.061c0-0.402-0.051-0.76-0.152-1.074C13.534,11.125,13.389,10.861,13.207,10.65z M12.554,13.734 		c-0.223,0.283-0.521,0.426-0.898,0.426s-0.679-0.143-0.901-0.426c-0.223-0.282-0.336-0.69-0.336-1.225 		c0-0.265,0.028-0.501,0.086-0.71s0.14-0.383,0.247-0.521c0.113-0.146,0.242-0.25,0.39-0.318c0.146-0.068,0.317-0.104,0.516-0.104 		c0.188,0,0.358,0.035,0.512,0.105c0.152,0.069,0.281,0.176,0.389,0.314c0.105,0.138,0.188,0.31,0.246,0.517 		c0.06,0.208,0.087,0.446,0.087,0.716C12.888,13.044,12.778,13.452,12.554,13.734z M18.025,13.607 		c-0.041,0.043-0.1,0.092-0.171,0.149c-0.071,0.06-0.156,0.116-0.257,0.173c-0.103,0.057-0.219,0.104-0.351,0.143 		c-0.131,0.037-0.274,0.057-0.429,0.057c-0.17,0-0.329-0.033-0.48-0.102c-0.15-0.066-0.282-0.168-0.394-0.301 		c-0.115-0.137-0.206-0.305-0.272-0.502c-0.066-0.199-0.1-0.437-0.1-0.711c0-0.261,0.03-0.492,0.095-0.699 		c0.062-0.207,0.15-0.379,0.264-0.517c0.115-0.137,0.249-0.239,0.402-0.31c0.152-0.07,0.313-0.105,0.485-0.105 		c0.157,0,0.298,0.02,0.418,0.055s0.231,0.082,0.335,0.138c0.104,0.06,0.195,0.12,0.27,0.181c0.074,0.062,0.134,0.113,0.181,0.156 		h0.043l0.003-0.996c-0.106-0.059-0.215-0.111-0.323-0.16s-0.215-0.089-0.319-0.121c-0.121-0.037-0.252-0.066-0.394-0.091 		c-0.143-0.024-0.293-0.036-0.455-0.036c-0.327,0-0.622,0.057-0.887,0.17c-0.264,0.114-0.491,0.279-0.684,0.495 		c-0.197,0.224-0.347,0.484-0.449,0.784c-0.103,0.301-0.153,0.652-0.153,1.059c0,0.405,0.053,0.767,0.158,1.078 		c0.105,0.314,0.256,0.575,0.447,0.785c0.192,0.209,0.421,0.367,0.687,0.473c0.265,0.106,0.555,0.16,0.869,0.16 		c0.192,0,0.35-0.013,0.47-0.037c0.12-0.022,0.25-0.058,0.391-0.104c0.135-0.043,0.248-0.087,0.343-0.133 		c0.095-0.045,0.193-0.094,0.301-0.143l-0.003-0.988H18.025z"/>
		</symbol>

		<symbol id="icon-file-pdf" width="19px" height="15px" viewBox="-0.141 0.008 19 15">
			<path d="M8.12,10.386c-0.204-0.142-0.439-0.243-0.707-0.307c-0.268-0.064-0.591-0.095-0.971-0.095L4.866,9.984 		v5.021h0.992l0.009-1.971h0.54c0.457,0,0.836-0.058,1.135-0.168c0.299-0.113,0.56-0.278,0.781-0.497 		c0.176-0.176,0.312-0.389,0.412-0.637c0.1-0.25,0.081-0.471-0.054-0.723C8.546,10.758,8.36,10.55,8.12,10.386z M7.593,11.734 		c-0.111,0.114-0.252,0.193-0.421,0.237c-0.169,0.045-0.39,0.067-0.664,0.067H5.859v-1.056h0.749c0.212,0,0.39,0.016,0.532,0.045 		c0.143,0.029,0.268,0.079,0.375,0.15c0.123,0.082,0.188,0.13,0.188,0.306C7.702,11.647,7.694,11.631,7.593,11.734z M13.039,10.482 		c-0.223-0.146-0.494-0.261-0.812-0.345c-0.316-0.084-0.756-0.126-1.314-0.126H9.839v4.993h1.088c0.482,0,0.877-0.032,1.188-0.096 		c0.311-0.064,0.615-0.19,0.916-0.38c0.369-0.245,0.664-0.586,0.885-1.021c0.219-0.437,0.234-0.324,0.234-0.867 		c0-0.58-0.012-0.73-0.223-1.149C13.719,11.071,13.422,10.735,13.039,10.482z M13.02,12.591c-0.066,0.44-0.004,0.128-0.084,0.407 		c-0.082,0.283-0.301,0.484-0.539,0.646c-0.189,0.132-0.398,0.223-0.629,0.271c-0.229,0.049-0.496,0.073-0.803,0.073H10.85v-3.01 		h0.115c0.312,0,0.57,0.024,0.779,0.073c0.207,0.048,0.404,0.128,0.586,0.239c0.26,0.158,0.455,0.377,0.588,0.658 		C13.049,12.231,13.08,12.198,13.02,12.591z M18.555,10.983v-0.969h-3.695v4.99h0.992v-2.006h1.777v-1.031h-1.777v-0.984H18.555z
			 M10.859,8.99V4.262l-0.32-0.317L6.875,0.317L6.556,0h-6.697v15h4.016l0.033-0.999H0.95V1.082h4.177c1.622,0,0.84,3.81,0.84,3.81 		s0.994-0.239,1.965-0.239c0.916,0,1.812,0.214,1.835,1.04c0,0.89,0,3.302,0,3.302L10.859,8.99z"/>
		</symbol>
	
		<symbol id="icon-file-xlsx" width="21.228px" height="15.09px" viewBox="0 0 21.228 15.09">
			<path d="M11.976,9.007V4.001L7.024,3.977l0.003,11.029L6.008,15
	L5.979,4.028H1.024v9.987h5.025l-0.033,1H0v-15L13.019,0L13,9.003L11.976,9.007z"/>
		<path d="M0.546,8.017h11.913v0.986H0.546V8.017z"/>
		<path d="M11.154,12.445l1.656-2.42h-1.132l-1.155,1.765l-1.155-1.765H8.27l1.583,2.406l-1.688,2.591h1.062
		l1.261-1.919l1.25,1.919h1.19L11.154,12.445z"/>
		<path d="M17.135,15.022V14.04h-2.116v-4.015h-1.004v4.997H17.135z"/>
		<path d="M21.108,13.077c-0.08-0.166-0.205-0.315-0.376-0.448c-0.171-0.132-0.5-0.324-0.81-0.515
		c-0.253-0.155-0.465-0.298-0.571-0.368c-0.106-0.069-0.182-0.143-0.228-0.221c-0.046-0.078-0.069-0.171-0.069-0.281
		c0-0.44,0.058-0.194,0.173-0.291c0.115-0.097,0.285-0.208,0.507-0.208c0.294,0,0.62,0.127,1.064,0.313l0.354-0.792
		c-0.474-0.209-0.95-0.314-1.429-0.314c-0.499,0-0.896,0.12-1.193,0.359s-0.444,0.567-0.444,0.984c0,0.333,0.093,0.618,0.28,0.854
		c0.187,0.237,0.486,0.4,0.901,0.664c0.379,0.24,0.647,0.384,0.764,0.492c0.117,0.107,0.175,0.237,0.175,0.392
		c0,0.171-0.063,0.307-0.19,0.408c-0.126,0.102-0.323,0.152-0.59,0.152c-0.182,0-0.379-0.025-0.59-0.076
		c-0.211-0.051-0.58-0.145-0.808-0.252v0.897c0.36,0.176,0.823,0.263,1.388,0.263s1.008-0.126,1.33-0.379s0.482-0.602,0.482-1.046
		C21.228,13.439,21.188,13.244,21.108,13.077z"/>
	</symbol>
	
	<symbol id="icon-file-xls" width="21.228px" height="15.09px" viewBox="0 0 21.228 15.09">
			<path d="M11.976,9.007V4.001L7.024,3.977l0.003,11.029L6.008,15
	L5.979,4.028H1.024v9.987h5.025l-0.033,1H0v-15L13.019,0L13,9.003L11.976,9.007z"/>
		<path d="M0.546,8.017h11.913v0.986H0.546V8.017z"/>
		<path d="M11.154,12.445l1.656-2.42h-1.132l-1.155,1.765l-1.155-1.765H8.27l1.583,2.406l-1.688,2.591h1.062
		l1.261-1.919l1.25,1.919h1.19L11.154,12.445z"/>
		<path d="M17.135,15.022V14.04h-2.116v-4.015h-1.004v4.997H17.135z"/>
		<path d="M21.108,13.077c-0.08-0.166-0.205-0.315-0.376-0.448c-0.171-0.132-0.5-0.324-0.81-0.515
		c-0.253-0.155-0.465-0.298-0.571-0.368c-0.106-0.069-0.182-0.143-0.228-0.221c-0.046-0.078-0.069-0.171-0.069-0.281
		c0-0.44,0.058-0.194,0.173-0.291c0.115-0.097,0.285-0.208,0.507-0.208c0.294,0,0.62,0.127,1.064,0.313l0.354-0.792
		c-0.474-0.209-0.95-0.314-1.429-0.314c-0.499,0-0.896,0.12-1.193,0.359s-0.444,0.567-0.444,0.984c0,0.333,0.093,0.618,0.28,0.854
		c0.187,0.237,0.486,0.4,0.901,0.664c0.379,0.24,0.647,0.384,0.764,0.492c0.117,0.107,0.175,0.237,0.175,0.392
		c0,0.171-0.063,0.307-0.19,0.408c-0.126,0.102-0.323,0.152-0.59,0.152c-0.182,0-0.379-0.025-0.59-0.076
		c-0.211-0.051-0.58-0.145-0.808-0.252v0.897c0.36,0.176,0.823,0.263,1.388,0.263s1.008-0.126,1.33-0.379s0.482-0.602,0.482-1.046
		C21.228,13.439,21.188,13.244,21.108,13.077z"/>
	</symbol>

		<symbol id="icon-protocol-summary" width="11px" height="15px" viewBox="0 0 11 15" >
			<path style="fill-rule:evenodd;clip-rule:evenodd;" d="M6.697,0l0.32,0.317l3.663,3.628L11,4.262V15H0V0H6.697z
	 M1.092,14.001h8.816c0-2.69,0-6.527,0-8.31c-0.024-0.827-0.919-1.04-1.835-1.04c-0.971,0-1.964,0.239-1.964,0.239 s0.782-3.81-0.841-3.81H1.092V14.001z M2.165,4.281V3.2h3.018c-0.008,0.34-0.04,0.716-0.094,1.081H2.165z M8.796,7.124H2.165V6.042 h6.632V7.124z M8.796,9.966H2.165V8.884h6.632V9.966z M8.796,12.808H2.165v-1.082h6.632V12.808z"/>
		</symbol>

		<symbol id="icon-sort-arrow" width="8" height="4" viewBox="0 0 8 4" >
		  <path d="M6.997,0.005 C6.997,0.005 3.499,3.998 3.499,3.998 C3.499,3.998 -0.000,0.005 -0.000,0.005 C-0.000,0.005 6.997,0.005 6.997,0.005 Z" id="path-1" class="cls-2" fill-rule="evenodd"/>
		</symbol>

		<symbol id="icon-remove"  width="9.897px" height="9.896px" viewBox="0 0 9.897 9.896">
			<path  d="M9.897,1.396L8.498,0l-3.56,3.551L1.4,0.022L0,1.418l3.538,3.529L0,8.476l1.424,1.42l3.538-3.529 l3.535,3.526l1.399-1.396L6.361,4.971L9.897,1.396z"/>
		</symbol>

	<symbol id="icon-add"  width="7.982px" height="7.984px" viewBox="0 0 7.982 7.984">
		<path d="M0,2.999h7.982v2.021H0V2.999z"/>
		<path d="M3.021,0h1.998v7.984H3.021V0z"/>
		<path d="M-0.001,4.991V2.993h7.984v1.998H-0.001z"/>
	</symbol>

	<symbol id="icon-add-large" viewBox="0 0 14 14">
		<path d="M8,6 L8,0 L6,0 L6,6 L0,6 L0,8 L6,8 L6,14 L8,14 L8,8 L14,8 L14,6 L8,6 Z"></path>
	</symbol>

		<symbol id="icon-check"  width="12.829px" height="11.982px" viewBox="0 0 12.829 11.982">
			<path d="M12.829,8.935v0.988H5.841V8.935H12.829z M7.855,5.936h4.973v0.988 H7.855V5.936z M5.855,3h6.973v0.957H5.855V3z"/>
			<path d="M1.817,3h1.874v0.957H1.817V3z"/>
			<path d="M5.855,0h6.973v0.957H5.855V0z"/>
			<path d="M1.817,0h1.874v0.957H1.817V0z"/>
			<path d="M6.79,5.312c-2.12,1.3-3.659,3.534-4.35,4.356L0.748,8.374 			L0,8.882l2.925,3.1c0.503-1.289,2.098-3.81,4.044-5.6L6.79,5.312z"/>
		</symbol>

		<symbol id="icon-comment" width="24px" height="20.999px" viewBox="0 0 24 20.999">
			<path d="M12.184,0.003C5.558-0.13,0.104,4.022,0.001,9.276 c-0.035,1.827,0.582,3.546,1.679,5.018h0c1.887,2.465-0.173,6.704-0.173,6.704l6.082-2.664c1.31,0.421,2.734,0.667,4.226,0.696 c6.626,0.133,12.081-4.019,12.183-9.274C24.1,4.503,18.811,0.136,12.184,0.003z M6.87,11.028c-0.816,0-1.478-0.673-1.478-1.503 c0-0.83,0.662-1.503,1.478-1.503s1.478,0.673,1.478,1.503C8.348,10.355,7.687,11.028,6.87,11.028z M11.797,11.028 c-0.816,0-1.478-0.673-1.478-1.503c0-0.83,0.662-1.503,1.478-1.503c0.816,0,1.478,0.673,1.478,1.503 C13.275,10.355,12.613,11.028,11.797,11.028z M16.724,11.028c-0.817,0-1.479-0.673-1.479-1.503c0-0.83,0.662-1.503,1.479-1.503 c0.816,0,1.478,0.673,1.478,1.503C18.202,10.355,17.54,11.028,16.724,11.028z"/>
		</symbol>

	<symbol id="icon-chevron" width="10.013px" height="5.169px" viewBox="0 0 10.013 5.169">
		<path d="M5.009,5.169l1.228-1.161l3.777-3.571L8.786,0.004L5.009,3.576 L1.227,0L0,0.432l3.782,3.576L5.009,5.169z"/>
	</symbol>

	<symbol id="icon-check" width="10.903px" height="10.902px" viewBox="0 0 10.903 10.902">
		<path d="M10.622,0C7.305,2.356,4.899,5.33,3.817,6.821L1.169,4.417 L0,5.51l4.576,5.393C5.363,8.565,7.857,3.996,10.903,0.75L10.622,0z"/>
	</symbol>

	<symbol id="icon-undo" width="12px" height="12px" viewBox="0 0 12 12">
		<path d="M5.914,0c0.001,0,0.003,0,0.004,0C5.919,0,5.92,0,5.921,0H5.914 z M12,5.999C12,2.704,9.286,0.024,5.918,0C5.899,0,5.884,0,5.874,0C3.754,0,2.199,1.506,1.454,2.847L0,1.404v4.191h4.225L2.758,4.14 c0.738-1.532,1.758-2.451,3.116-2.324c0.012,0.001,0.018,0,0.021,0h0.008c2.349,0.014,4.244,1.885,4.244,4.183 c0,0.003,0,0.014,0,0.033c-0.018,2.298-1.927,4.151-4.27,4.151c-0.008,0-0.02,0-0.037,0L5.844,12c0.005,0,0.016,0,0.031,0 c3.365,0,6.103-2.661,6.125-5.961v-0.01V6.016C12,6.013,12,6.007,12,5.999z"/>
	</symbol>

	<symbol id="icon-drag-handle" width="9px" height="7px" viewBox="0 0 9 7">
		<g>
			<rect x="0" y="0" width="9" height="1"></rect>
			<rect x="0" y="3" width="9" height="1"></rect>
			<rect x="0" y="6" width="9" height="1"></rect>
		</g>
	</symbol>

</svg>